<mxfile host="app.diagrams.net" modified="2021-06-16T20:15:13.473Z" agent="5.0 (Macintosh; Intel Mac OS X 10_13_6) AppleWebKit/605.1.15 (KHTML, like Gecko) Version/13.1.2 Safari/605.1.15" etag="9oj8g2g5BvfkWmPi_wPE" version="14.7.7" type="github">
  <diagram id="WvXEa7AoyDHu58R9hgBR" name="Page-1">
    <mxGraphModel dx="1412" dy="1033" grid="1" gridSize="10" guides="1" tooltips="1" connect="1" arrows="1" fold="1" page="1" pageScale="1" pageWidth="827" pageHeight="1169" math="0" shadow="0">
      <root>
        <mxCell id="0" />
        <mxCell id="1" parent="0" />
        <mxCell id="zAf745h_EL0XXIkWd8x4-1" value="&lt;font size=&quot;3&quot;&gt;Veri&lt;/font&gt;" style="rounded=1;whiteSpace=wrap;html=1;" vertex="1" parent="1">
          <mxGeometry x="30" y="330" width="70" height="60" as="geometry" />
        </mxCell>
        <mxCell id="zAf745h_EL0XXIkWd8x4-2" value="&lt;font size=&quot;3&quot;&gt;PP&lt;/font&gt;" style="rounded=1;whiteSpace=wrap;html=1;" vertex="1" parent="1">
          <mxGeometry x="120" y="330" width="70" height="60" as="geometry" />
        </mxCell>
        <mxCell id="zAf745h_EL0XXIkWd8x4-3" value="&lt;font size=&quot;3&quot;&gt;Input Rep.&lt;/font&gt;" style="rounded=1;whiteSpace=wrap;html=1;" vertex="1" parent="1">
          <mxGeometry x="210" y="330" width="70" height="60" as="geometry" />
        </mxCell>
        <mxCell id="zAf745h_EL0XXIkWd8x4-4" value="&lt;font style=&quot;font-size: 18px&quot;&gt;Rating (1-10) Tahminleme&lt;/font&gt;" style="text;html=1;align=center;verticalAlign=middle;resizable=0;points=[];autosize=1;strokeColor=none;" vertex="1" parent="1">
          <mxGeometry x="30" y="240" width="220" height="20" as="geometry" />
        </mxCell>
        <mxCell id="zAf745h_EL0XXIkWd8x4-6" value="" style="endArrow=classic;html=1;exitX=1;exitY=0.5;exitDx=0;exitDy=0;" edge="1" parent="1">
          <mxGeometry width="50" height="50" relative="1" as="geometry">
            <mxPoint x="190" y="359.5" as="sourcePoint" />
            <mxPoint x="210" y="360" as="targetPoint" />
          </mxGeometry>
        </mxCell>
        <mxCell id="zAf745h_EL0XXIkWd8x4-7" value="" style="endArrow=classic;html=1;exitX=1;exitY=0.5;exitDx=0;exitDy=0;" edge="1" parent="1">
          <mxGeometry width="50" height="50" relative="1" as="geometry">
            <mxPoint x="100" y="359.5" as="sourcePoint" />
            <mxPoint x="120" y="360" as="targetPoint" />
          </mxGeometry>
        </mxCell>
        <mxCell id="zAf745h_EL0XXIkWd8x4-8" value="" style="endArrow=classic;html=1;exitX=1;exitY=0.5;exitDx=0;exitDy=0;entryX=0;entryY=0.5;entryDx=0;entryDy=0;rounded=0;" edge="1" parent="1" target="zAf745h_EL0XXIkWd8x4-10">
          <mxGeometry width="50" height="50" relative="1" as="geometry">
            <mxPoint x="280" y="360" as="sourcePoint" />
            <mxPoint x="320" y="360.5" as="targetPoint" />
            <Array as="points">
              <mxPoint x="300" y="360" />
              <mxPoint x="300" y="325" />
            </Array>
          </mxGeometry>
        </mxCell>
        <mxCell id="zAf745h_EL0XXIkWd8x4-10" value="Decision Tree" style="ellipse;whiteSpace=wrap;html=1;" vertex="1" parent="1">
          <mxGeometry x="320" y="295" width="80" height="60" as="geometry" />
        </mxCell>
        <mxCell id="zAf745h_EL0XXIkWd8x4-11" value="Naive Bayes" style="ellipse;whiteSpace=wrap;html=1;" vertex="1" parent="1">
          <mxGeometry x="320" y="365" width="80" height="60" as="geometry" />
        </mxCell>
        <mxCell id="zAf745h_EL0XXIkWd8x4-12" value="Logistic &amp;nbsp;Regression" style="ellipse;whiteSpace=wrap;html=1;" vertex="1" parent="1">
          <mxGeometry x="320" y="225" width="80" height="60" as="geometry" />
        </mxCell>
        <mxCell id="zAf745h_EL0XXIkWd8x4-13" value="LSTM" style="ellipse;whiteSpace=wrap;html=1;" vertex="1" parent="1">
          <mxGeometry x="320" y="440" width="80" height="60" as="geometry" />
        </mxCell>
        <mxCell id="zAf745h_EL0XXIkWd8x4-14" value="" style="endArrow=classic;html=1;entryX=0;entryY=0.5;entryDx=0;entryDy=0;" edge="1" parent="1" target="zAf745h_EL0XXIkWd8x4-11">
          <mxGeometry width="50" height="50" relative="1" as="geometry">
            <mxPoint x="300" y="395" as="sourcePoint" />
            <mxPoint x="320" y="400" as="targetPoint" />
          </mxGeometry>
        </mxCell>
        <mxCell id="zAf745h_EL0XXIkWd8x4-15" value="" style="endArrow=classic;html=1;entryX=0;entryY=0.5;entryDx=0;entryDy=0;rounded=0;" edge="1" parent="1" target="zAf745h_EL0XXIkWd8x4-13">
          <mxGeometry width="50" height="50" relative="1" as="geometry">
            <mxPoint x="300" y="360" as="sourcePoint" />
            <mxPoint x="330" y="410" as="targetPoint" />
            <Array as="points">
              <mxPoint x="300" y="470" />
            </Array>
          </mxGeometry>
        </mxCell>
        <mxCell id="zAf745h_EL0XXIkWd8x4-16" value="" style="endArrow=classic;html=1;rounded=0;entryX=0;entryY=0.5;entryDx=0;entryDy=0;" edge="1" parent="1" target="zAf745h_EL0XXIkWd8x4-12">
          <mxGeometry width="50" height="50" relative="1" as="geometry">
            <mxPoint x="300" y="360" as="sourcePoint" />
            <mxPoint x="250" y="490" as="targetPoint" />
            <Array as="points">
              <mxPoint x="300" y="255" />
            </Array>
          </mxGeometry>
        </mxCell>
        <mxCell id="zAf745h_EL0XXIkWd8x4-19" value="" style="endArrow=classic;html=1;exitX=1;exitY=0.5;exitDx=0;exitDy=0;entryX=0;entryY=0.5;entryDx=0;entryDy=0;rounded=0;" edge="1" parent="1" target="zAf745h_EL0XXIkWd8x4-28">
          <mxGeometry width="50" height="50" relative="1" as="geometry">
            <mxPoint x="400" y="254.5" as="sourcePoint" />
            <mxPoint x="490" y="255" as="targetPoint" />
            <Array as="points">
              <mxPoint x="480" y="255" />
              <mxPoint x="480" y="360" />
            </Array>
          </mxGeometry>
        </mxCell>
        <mxCell id="zAf745h_EL0XXIkWd8x4-20" value="" style="endArrow=classic;html=1;exitX=1;exitY=0.5;exitDx=0;exitDy=0;" edge="1" parent="1">
          <mxGeometry width="50" height="50" relative="1" as="geometry">
            <mxPoint x="400" y="324.5" as="sourcePoint" />
            <mxPoint x="440" y="325" as="targetPoint" />
          </mxGeometry>
        </mxCell>
        <mxCell id="zAf745h_EL0XXIkWd8x4-21" value="" style="endArrow=classic;html=1;exitX=1;exitY=0.5;exitDx=0;exitDy=0;" edge="1" parent="1">
          <mxGeometry width="50" height="50" relative="1" as="geometry">
            <mxPoint x="400" y="394.5" as="sourcePoint" />
            <mxPoint x="440" y="395" as="targetPoint" />
          </mxGeometry>
        </mxCell>
        <mxCell id="zAf745h_EL0XXIkWd8x4-23" value="" style="endArrow=classic;html=1;exitX=1;exitY=0.5;exitDx=0;exitDy=0;" edge="1" parent="1">
          <mxGeometry width="50" height="50" relative="1" as="geometry">
            <mxPoint x="400" y="469.5" as="sourcePoint" />
            <mxPoint x="440" y="470" as="targetPoint" />
          </mxGeometry>
        </mxCell>
        <mxCell id="zAf745h_EL0XXIkWd8x4-24" value="%65" style="text;html=1;align=center;verticalAlign=middle;resizable=0;points=[];autosize=1;strokeColor=none;" vertex="1" parent="1">
          <mxGeometry x="394" y="225" width="40" height="20" as="geometry" />
        </mxCell>
        <mxCell id="zAf745h_EL0XXIkWd8x4-25" value="%47" style="text;html=1;align=center;verticalAlign=middle;resizable=0;points=[];autosize=1;strokeColor=none;" vertex="1" parent="1">
          <mxGeometry x="394" y="295" width="40" height="20" as="geometry" />
        </mxCell>
        <mxCell id="zAf745h_EL0XXIkWd8x4-26" value="%59" style="text;html=1;align=center;verticalAlign=middle;resizable=0;points=[];autosize=1;strokeColor=none;" vertex="1" parent="1">
          <mxGeometry x="394" y="365" width="40" height="20" as="geometry" />
        </mxCell>
        <mxCell id="zAf745h_EL0XXIkWd8x4-27" value="%61" style="text;html=1;align=center;verticalAlign=middle;resizable=0;points=[];autosize=1;strokeColor=none;" vertex="1" parent="1">
          <mxGeometry x="394" y="440" width="40" height="20" as="geometry" />
        </mxCell>
        <mxCell id="zAf745h_EL0XXIkWd8x4-28" value="&lt;font size=&quot;3&quot;&gt;Deploy&lt;/font&gt;" style="rounded=1;whiteSpace=wrap;html=1;" vertex="1" parent="1">
          <mxGeometry x="600" y="330" width="70" height="60" as="geometry" />
        </mxCell>
        <mxCell id="zAf745h_EL0XXIkWd8x4-29" value="&lt;font size=&quot;3&quot;&gt;Data&lt;/font&gt;" style="rounded=1;whiteSpace=wrap;html=1;" vertex="1" parent="1">
          <mxGeometry x="30" y="655" width="70" height="60" as="geometry" />
        </mxCell>
        <mxCell id="zAf745h_EL0XXIkWd8x4-30" value="&lt;font size=&quot;3&quot;&gt;PP&lt;/font&gt;" style="rounded=1;whiteSpace=wrap;html=1;" vertex="1" parent="1">
          <mxGeometry x="120" y="655" width="70" height="60" as="geometry" />
        </mxCell>
        <mxCell id="zAf745h_EL0XXIkWd8x4-31" value="&lt;font size=&quot;3&quot;&gt;Input Rep.&lt;/font&gt;" style="rounded=1;whiteSpace=wrap;html=1;" vertex="1" parent="1">
          <mxGeometry x="210" y="655" width="70" height="60" as="geometry" />
        </mxCell>
        <mxCell id="zAf745h_EL0XXIkWd8x4-32" value="&lt;font style=&quot;font-size: 18px&quot;&gt;Rating (1-10) Tahminleme&lt;/font&gt;" style="text;html=1;align=center;verticalAlign=middle;resizable=0;points=[];autosize=1;strokeColor=none;" vertex="1" parent="1">
          <mxGeometry x="30" y="565" width="220" height="20" as="geometry" />
        </mxCell>
        <mxCell id="zAf745h_EL0XXIkWd8x4-33" value="" style="endArrow=classic;html=1;exitX=1;exitY=0.5;exitDx=0;exitDy=0;" edge="1" parent="1">
          <mxGeometry width="50" height="50" relative="1" as="geometry">
            <mxPoint x="190" y="684.5" as="sourcePoint" />
            <mxPoint x="210" y="685" as="targetPoint" />
          </mxGeometry>
        </mxCell>
        <mxCell id="zAf745h_EL0XXIkWd8x4-34" value="" style="endArrow=classic;html=1;exitX=1;exitY=0.5;exitDx=0;exitDy=0;" edge="1" parent="1">
          <mxGeometry width="50" height="50" relative="1" as="geometry">
            <mxPoint x="100" y="684.5" as="sourcePoint" />
            <mxPoint x="120" y="685" as="targetPoint" />
          </mxGeometry>
        </mxCell>
        <mxCell id="zAf745h_EL0XXIkWd8x4-35" value="" style="endArrow=classic;html=1;exitX=1;exitY=0.5;exitDx=0;exitDy=0;entryX=0;entryY=0.5;entryDx=0;entryDy=0;rounded=0;" edge="1" parent="1" target="zAf745h_EL0XXIkWd8x4-36">
          <mxGeometry width="50" height="50" relative="1" as="geometry">
            <mxPoint x="280" y="685" as="sourcePoint" />
            <mxPoint x="320" y="685.5" as="targetPoint" />
            <Array as="points">
              <mxPoint x="300" y="685" />
              <mxPoint x="300" y="650" />
            </Array>
          </mxGeometry>
        </mxCell>
        <mxCell id="zAf745h_EL0XXIkWd8x4-36" value="Decision Tree" style="ellipse;whiteSpace=wrap;html=1;" vertex="1" parent="1">
          <mxGeometry x="320" y="620" width="80" height="60" as="geometry" />
        </mxCell>
        <mxCell id="zAf745h_EL0XXIkWd8x4-37" value="Naive Bayes" style="ellipse;whiteSpace=wrap;html=1;" vertex="1" parent="1">
          <mxGeometry x="320" y="690" width="80" height="60" as="geometry" />
        </mxCell>
        <mxCell id="zAf745h_EL0XXIkWd8x4-38" value="Logistic &amp;nbsp;Regression" style="ellipse;whiteSpace=wrap;html=1;" vertex="1" parent="1">
          <mxGeometry x="320" y="550" width="80" height="60" as="geometry" />
        </mxCell>
        <mxCell id="zAf745h_EL0XXIkWd8x4-39" value="LSTM" style="ellipse;whiteSpace=wrap;html=1;" vertex="1" parent="1">
          <mxGeometry x="320" y="765" width="80" height="60" as="geometry" />
        </mxCell>
        <mxCell id="zAf745h_EL0XXIkWd8x4-40" value="" style="endArrow=classic;html=1;entryX=0;entryY=0.5;entryDx=0;entryDy=0;" edge="1" parent="1" target="zAf745h_EL0XXIkWd8x4-37">
          <mxGeometry width="50" height="50" relative="1" as="geometry">
            <mxPoint x="300" y="720" as="sourcePoint" />
            <mxPoint x="320" y="725" as="targetPoint" />
          </mxGeometry>
        </mxCell>
        <mxCell id="zAf745h_EL0XXIkWd8x4-41" value="" style="endArrow=classic;html=1;entryX=0;entryY=0.5;entryDx=0;entryDy=0;rounded=0;" edge="1" parent="1" target="zAf745h_EL0XXIkWd8x4-39">
          <mxGeometry width="50" height="50" relative="1" as="geometry">
            <mxPoint x="300" y="685" as="sourcePoint" />
            <mxPoint x="330" y="735" as="targetPoint" />
            <Array as="points">
              <mxPoint x="300" y="795" />
            </Array>
          </mxGeometry>
        </mxCell>
        <mxCell id="zAf745h_EL0XXIkWd8x4-42" value="" style="endArrow=classic;html=1;rounded=0;entryX=0;entryY=0.5;entryDx=0;entryDy=0;" edge="1" parent="1" target="zAf745h_EL0XXIkWd8x4-38">
          <mxGeometry width="50" height="50" relative="1" as="geometry">
            <mxPoint x="300" y="685" as="sourcePoint" />
            <mxPoint x="250" y="815" as="targetPoint" />
            <Array as="points">
              <mxPoint x="300" y="580" />
            </Array>
          </mxGeometry>
        </mxCell>
        <mxCell id="zAf745h_EL0XXIkWd8x4-43" value="" style="endArrow=classic;html=1;exitX=1;exitY=0.5;exitDx=0;exitDy=0;entryX=0;entryY=0.5;entryDx=0;entryDy=0;rounded=0;" edge="1" parent="1" target="zAf745h_EL0XXIkWd8x4-51">
          <mxGeometry width="50" height="50" relative="1" as="geometry">
            <mxPoint x="400" y="579.5" as="sourcePoint" />
            <mxPoint x="490" y="580" as="targetPoint" />
            <Array as="points">
              <mxPoint x="420" y="580" />
              <mxPoint x="420" y="640" />
              <mxPoint x="420" y="685" />
            </Array>
          </mxGeometry>
        </mxCell>
        <mxCell id="zAf745h_EL0XXIkWd8x4-51" value="&lt;font size=&quot;3&quot;&gt;Eval&lt;/font&gt;" style="rounded=1;whiteSpace=wrap;html=1;" vertex="1" parent="1">
          <mxGeometry x="440" y="655" width="70" height="60" as="geometry" />
        </mxCell>
        <mxCell id="zAf745h_EL0XXIkWd8x4-53" value="" style="endArrow=none;html=1;exitX=1;exitY=0.5;exitDx=0;exitDy=0;" edge="1" parent="1" source="zAf745h_EL0XXIkWd8x4-36">
          <mxGeometry width="50" height="50" relative="1" as="geometry">
            <mxPoint x="390" y="670" as="sourcePoint" />
            <mxPoint x="420" y="650" as="targetPoint" />
          </mxGeometry>
        </mxCell>
        <mxCell id="zAf745h_EL0XXIkWd8x4-55" value="" style="endArrow=none;html=1;exitX=1;exitY=0.5;exitDx=0;exitDy=0;rounded=0;" edge="1" parent="1" source="zAf745h_EL0XXIkWd8x4-39">
          <mxGeometry width="50" height="50" relative="1" as="geometry">
            <mxPoint x="390" y="670" as="sourcePoint" />
            <mxPoint x="420" y="680" as="targetPoint" />
            <Array as="points">
              <mxPoint x="420" y="795" />
            </Array>
          </mxGeometry>
        </mxCell>
        <mxCell id="zAf745h_EL0XXIkWd8x4-56" value="" style="endArrow=none;html=1;exitX=1;exitY=0.5;exitDx=0;exitDy=0;" edge="1" parent="1">
          <mxGeometry width="50" height="50" relative="1" as="geometry">
            <mxPoint x="400" y="719.5" as="sourcePoint" />
            <mxPoint x="420" y="719.5" as="targetPoint" />
          </mxGeometry>
        </mxCell>
        <mxCell id="zAf745h_EL0XXIkWd8x4-57" value="&lt;font size=&quot;3&quot;&gt;Deploy&lt;/font&gt;" style="rounded=1;whiteSpace=wrap;html=1;" vertex="1" parent="1">
          <mxGeometry x="530" y="655" width="70" height="60" as="geometry" />
        </mxCell>
        <mxCell id="zAf745h_EL0XXIkWd8x4-58" value="" style="endArrow=classic;html=1;exitX=1;exitY=0.5;exitDx=0;exitDy=0;" edge="1" parent="1">
          <mxGeometry width="50" height="50" relative="1" as="geometry">
            <mxPoint x="510" y="684.5" as="sourcePoint" />
            <mxPoint x="530" y="685" as="targetPoint" />
          </mxGeometry>
        </mxCell>
        <mxCell id="zAf745h_EL0XXIkWd8x4-59" value="&lt;font size=&quot;3&quot;&gt;Data&lt;/font&gt;" style="rounded=1;whiteSpace=wrap;html=1;" vertex="1" parent="1">
          <mxGeometry x="30" y="965" width="70" height="60" as="geometry" />
        </mxCell>
        <mxCell id="zAf745h_EL0XXIkWd8x4-60" value="&lt;font size=&quot;3&quot;&gt;PP&lt;/font&gt;" style="rounded=1;whiteSpace=wrap;html=1;" vertex="1" parent="1">
          <mxGeometry x="120" y="965" width="70" height="60" as="geometry" />
        </mxCell>
        <mxCell id="zAf745h_EL0XXIkWd8x4-61" value="&lt;font size=&quot;3&quot;&gt;Input Rep.&lt;/font&gt;" style="rounded=1;whiteSpace=wrap;html=1;" vertex="1" parent="1">
          <mxGeometry x="210" y="965" width="70" height="60" as="geometry" />
        </mxCell>
        <mxCell id="zAf745h_EL0XXIkWd8x4-62" value="&lt;font style=&quot;font-size: 18px&quot;&gt;Duygu(Poz/Negatif) Tahminleme&lt;/font&gt;" style="text;html=1;align=center;verticalAlign=middle;resizable=0;points=[];autosize=1;strokeColor=none;" vertex="1" parent="1">
          <mxGeometry x="20" y="875" width="270" height="20" as="geometry" />
        </mxCell>
        <mxCell id="zAf745h_EL0XXIkWd8x4-63" value="" style="endArrow=classic;html=1;exitX=1;exitY=0.5;exitDx=0;exitDy=0;" edge="1" parent="1">
          <mxGeometry width="50" height="50" relative="1" as="geometry">
            <mxPoint x="190" y="994.5" as="sourcePoint" />
            <mxPoint x="210" y="995" as="targetPoint" />
          </mxGeometry>
        </mxCell>
        <mxCell id="zAf745h_EL0XXIkWd8x4-64" value="" style="endArrow=classic;html=1;exitX=1;exitY=0.5;exitDx=0;exitDy=0;" edge="1" parent="1">
          <mxGeometry width="50" height="50" relative="1" as="geometry">
            <mxPoint x="100" y="994.5" as="sourcePoint" />
            <mxPoint x="120" y="995" as="targetPoint" />
          </mxGeometry>
        </mxCell>
        <mxCell id="zAf745h_EL0XXIkWd8x4-65" value="" style="endArrow=classic;html=1;exitX=1;exitY=0.5;exitDx=0;exitDy=0;entryX=0;entryY=0.5;entryDx=0;entryDy=0;rounded=0;" edge="1" parent="1" target="zAf745h_EL0XXIkWd8x4-66">
          <mxGeometry width="50" height="50" relative="1" as="geometry">
            <mxPoint x="280" y="995" as="sourcePoint" />
            <mxPoint x="320" y="995.5" as="targetPoint" />
            <Array as="points">
              <mxPoint x="300" y="995" />
            </Array>
          </mxGeometry>
        </mxCell>
        <mxCell id="zAf745h_EL0XXIkWd8x4-66" value="Decision Tree" style="ellipse;whiteSpace=wrap;html=1;" vertex="1" parent="1">
          <mxGeometry x="320" y="965" width="80" height="60" as="geometry" />
        </mxCell>
        <mxCell id="zAf745h_EL0XXIkWd8x4-67" value="Naive Bayes" style="ellipse;whiteSpace=wrap;html=1;" vertex="1" parent="1">
          <mxGeometry x="320" y="1035" width="80" height="60" as="geometry" />
        </mxCell>
        <mxCell id="zAf745h_EL0XXIkWd8x4-68" value="Logistic &amp;nbsp;Regression" style="ellipse;whiteSpace=wrap;html=1;" vertex="1" parent="1">
          <mxGeometry x="320" y="895" width="80" height="60" as="geometry" />
        </mxCell>
        <mxCell id="zAf745h_EL0XXIkWd8x4-70" value="" style="endArrow=classic;html=1;entryX=0;entryY=0.5;entryDx=0;entryDy=0;rounded=0;" edge="1" parent="1" target="zAf745h_EL0XXIkWd8x4-67">
          <mxGeometry width="50" height="50" relative="1" as="geometry">
            <mxPoint x="300" y="990" as="sourcePoint" />
            <mxPoint x="320" y="1035" as="targetPoint" />
            <Array as="points">
              <mxPoint x="300" y="1065" />
            </Array>
          </mxGeometry>
        </mxCell>
        <mxCell id="zAf745h_EL0XXIkWd8x4-72" value="" style="endArrow=classic;html=1;rounded=0;entryX=0;entryY=0.5;entryDx=0;entryDy=0;" edge="1" parent="1" target="zAf745h_EL0XXIkWd8x4-68">
          <mxGeometry width="50" height="50" relative="1" as="geometry">
            <mxPoint x="300" y="995" as="sourcePoint" />
            <mxPoint x="250" y="1125" as="targetPoint" />
            <Array as="points">
              <mxPoint x="300" y="925" />
            </Array>
          </mxGeometry>
        </mxCell>
        <mxCell id="zAf745h_EL0XXIkWd8x4-73" value="" style="endArrow=classic;html=1;exitX=1;exitY=0.5;exitDx=0;exitDy=0;entryX=0;entryY=0.5;entryDx=0;entryDy=0;rounded=0;" edge="1" parent="1" target="zAf745h_EL0XXIkWd8x4-74" source="zAf745h_EL0XXIkWd8x4-68">
          <mxGeometry width="50" height="50" relative="1" as="geometry">
            <mxPoint x="400" y="889.5" as="sourcePoint" />
            <mxPoint x="490" y="890" as="targetPoint" />
            <Array as="points">
              <mxPoint x="420" y="925" />
              <mxPoint x="420" y="995" />
            </Array>
          </mxGeometry>
        </mxCell>
        <mxCell id="zAf745h_EL0XXIkWd8x4-74" value="&lt;font size=&quot;3&quot;&gt;Eval&lt;/font&gt;" style="rounded=1;whiteSpace=wrap;html=1;" vertex="1" parent="1">
          <mxGeometry x="440" y="965" width="70" height="60" as="geometry" />
        </mxCell>
        <mxCell id="zAf745h_EL0XXIkWd8x4-75" value="" style="endArrow=none;html=1;exitX=1;exitY=0.5;exitDx=0;exitDy=0;" edge="1" parent="1" source="zAf745h_EL0XXIkWd8x4-66">
          <mxGeometry width="50" height="50" relative="1" as="geometry">
            <mxPoint x="390" y="980" as="sourcePoint" />
            <mxPoint x="420" y="995" as="targetPoint" />
          </mxGeometry>
        </mxCell>
        <mxCell id="zAf745h_EL0XXIkWd8x4-77" value="" style="endArrow=none;html=1;exitX=1;exitY=0.5;exitDx=0;exitDy=0;rounded=0;" edge="1" parent="1" source="zAf745h_EL0XXIkWd8x4-67">
          <mxGeometry width="50" height="50" relative="1" as="geometry">
            <mxPoint x="400" y="1029.5" as="sourcePoint" />
            <mxPoint x="420" y="990" as="targetPoint" />
            <Array as="points">
              <mxPoint x="420" y="1065" />
            </Array>
          </mxGeometry>
        </mxCell>
        <mxCell id="zAf745h_EL0XXIkWd8x4-78" value="&lt;font size=&quot;3&quot;&gt;Deploy&lt;/font&gt;" style="rounded=1;whiteSpace=wrap;html=1;" vertex="1" parent="1">
          <mxGeometry x="530" y="965" width="70" height="60" as="geometry" />
        </mxCell>
        <mxCell id="zAf745h_EL0XXIkWd8x4-79" value="" style="endArrow=classic;html=1;exitX=1;exitY=0.5;exitDx=0;exitDy=0;" edge="1" parent="1">
          <mxGeometry width="50" height="50" relative="1" as="geometry">
            <mxPoint x="510" y="994.5" as="sourcePoint" />
            <mxPoint x="530" y="995" as="targetPoint" />
          </mxGeometry>
        </mxCell>
        <mxCell id="zAf745h_EL0XXIkWd8x4-80" value="&lt;font size=&quot;3&quot;&gt;Data&lt;/font&gt;" style="rounded=1;whiteSpace=wrap;html=1;fillColor=#bac8d3;sketch=1;strokeColor=#23445d;" vertex="1" parent="1">
          <mxGeometry x="910" y="675" width="70" height="60" as="geometry" />
        </mxCell>
        <mxCell id="zAf745h_EL0XXIkWd8x4-81" value="&lt;font size=&quot;3&quot;&gt;PP&lt;/font&gt;" style="rounded=1;whiteSpace=wrap;html=1;fillColor=#bac8d3;strokeColor=#23445d;sketch=1;" vertex="1" parent="1">
          <mxGeometry x="1000" y="675" width="70" height="60" as="geometry" />
        </mxCell>
        <mxCell id="zAf745h_EL0XXIkWd8x4-82" value="&lt;font size=&quot;3&quot;&gt;Input Rep.&lt;/font&gt;" style="rounded=1;whiteSpace=wrap;html=1;fillColor=#bac8d3;strokeColor=#23445d;shadow=0;sketch=1;" vertex="1" parent="1">
          <mxGeometry x="1090" y="675" width="70" height="60" as="geometry" />
        </mxCell>
        <mxCell id="zAf745h_EL0XXIkWd8x4-83" value="&lt;font style=&quot;font-size: 18px&quot;&gt;&lt;u&gt;Rating (1-10) Tahminleme&lt;/u&gt;&lt;/font&gt;" style="text;html=1;align=center;verticalAlign=middle;resizable=0;points=[];autosize=1;strokeColor=none;" vertex="1" parent="1">
          <mxGeometry x="925" y="565" width="220" height="20" as="geometry" />
        </mxCell>
        <mxCell id="zAf745h_EL0XXIkWd8x4-84" value="" style="endArrow=classic;html=1;exitX=1;exitY=0.5;exitDx=0;exitDy=0;" edge="1" parent="1">
          <mxGeometry width="50" height="50" relative="1" as="geometry">
            <mxPoint x="1070" y="704.5" as="sourcePoint" />
            <mxPoint x="1090" y="705" as="targetPoint" />
          </mxGeometry>
        </mxCell>
        <mxCell id="zAf745h_EL0XXIkWd8x4-85" value="" style="endArrow=classic;html=1;exitX=1;exitY=0.5;exitDx=0;exitDy=0;" edge="1" parent="1">
          <mxGeometry width="50" height="50" relative="1" as="geometry">
            <mxPoint x="980" y="704.5" as="sourcePoint" />
            <mxPoint x="1000" y="705" as="targetPoint" />
          </mxGeometry>
        </mxCell>
        <mxCell id="zAf745h_EL0XXIkWd8x4-86" value="" style="endArrow=classic;html=1;exitX=1;exitY=0.5;exitDx=0;exitDy=0;entryX=0;entryY=0.5;entryDx=0;entryDy=0;rounded=0;" edge="1" parent="1" target="zAf745h_EL0XXIkWd8x4-87">
          <mxGeometry width="50" height="50" relative="1" as="geometry">
            <mxPoint x="1160" y="705" as="sourcePoint" />
            <mxPoint x="1200" y="705.5" as="targetPoint" />
            <Array as="points">
              <mxPoint x="1180" y="705" />
              <mxPoint x="1180" y="670" />
            </Array>
          </mxGeometry>
        </mxCell>
        <mxCell id="zAf745h_EL0XXIkWd8x4-87" value="Decision Tree" style="ellipse;whiteSpace=wrap;html=1;fillColor=#b0e3e6;strokeColor=#0e8088;shadow=1;strokeWidth=4;perimeterSpacing=0;" vertex="1" parent="1">
          <mxGeometry x="1200" y="640" width="80" height="60" as="geometry" />
        </mxCell>
        <mxCell id="zAf745h_EL0XXIkWd8x4-88" value="Naive Bayes" style="ellipse;whiteSpace=wrap;html=1;fillColor=#b0e3e6;strokeColor=#0e8088;shadow=1;strokeWidth=4;perimeterSpacing=0;" vertex="1" parent="1">
          <mxGeometry x="1200" y="710" width="80" height="60" as="geometry" />
        </mxCell>
        <mxCell id="zAf745h_EL0XXIkWd8x4-89" value="LSTM" style="ellipse;whiteSpace=wrap;html=1;fillColor=#b0e3e6;strokeColor=#0e8088;shadow=1;strokeWidth=4;perimeterSpacing=0;" vertex="1" parent="1">
          <mxGeometry x="1200" y="785" width="80" height="60" as="geometry" />
        </mxCell>
        <mxCell id="zAf745h_EL0XXIkWd8x4-90" value="" style="endArrow=classic;html=1;entryX=0;entryY=0.5;entryDx=0;entryDy=0;" edge="1" parent="1" target="zAf745h_EL0XXIkWd8x4-88">
          <mxGeometry width="50" height="50" relative="1" as="geometry">
            <mxPoint x="1180" y="740" as="sourcePoint" />
            <mxPoint x="1200" y="745" as="targetPoint" />
          </mxGeometry>
        </mxCell>
        <mxCell id="zAf745h_EL0XXIkWd8x4-91" value="" style="endArrow=classic;html=1;entryX=0;entryY=0.5;entryDx=0;entryDy=0;rounded=0;" edge="1" parent="1" target="zAf745h_EL0XXIkWd8x4-89">
          <mxGeometry width="50" height="50" relative="1" as="geometry">
            <mxPoint x="1180" y="705" as="sourcePoint" />
            <mxPoint x="1210" y="755" as="targetPoint" />
            <Array as="points">
              <mxPoint x="1180" y="815" />
            </Array>
          </mxGeometry>
        </mxCell>
        <mxCell id="zAf745h_EL0XXIkWd8x4-92" value="" style="endArrow=classic;html=1;rounded=0;entryX=0;entryY=0.5;entryDx=0;entryDy=0;" edge="1" parent="1">
          <mxGeometry width="50" height="50" relative="1" as="geometry">
            <mxPoint x="1180" y="705" as="sourcePoint" />
            <mxPoint x="1200" y="600" as="targetPoint" />
            <Array as="points">
              <mxPoint x="1180" y="600" />
            </Array>
          </mxGeometry>
        </mxCell>
        <mxCell id="zAf745h_EL0XXIkWd8x4-93" value="" style="endArrow=classic;html=1;exitX=1;exitY=0.5;exitDx=0;exitDy=0;entryX=0;entryY=0.5;entryDx=0;entryDy=0;rounded=0;strokeWidth=2;" edge="1" parent="1" target="zAf745h_EL0XXIkWd8x4-94">
          <mxGeometry width="50" height="50" relative="1" as="geometry">
            <mxPoint x="1280" y="599.5" as="sourcePoint" />
            <mxPoint x="1370" y="600" as="targetPoint" />
            <Array as="points">
              <mxPoint x="1300" y="600" />
              <mxPoint x="1300" y="660" />
              <mxPoint x="1300" y="705" />
            </Array>
          </mxGeometry>
        </mxCell>
        <mxCell id="zAf745h_EL0XXIkWd8x4-94" value="&lt;font size=&quot;3&quot;&gt;Eval&lt;/font&gt;" style="rounded=1;whiteSpace=wrap;html=1;fillColor=#dae8fc;strokeColor=#6c8ebf;strokeWidth=4;" vertex="1" parent="1">
          <mxGeometry x="1320" y="675" width="70" height="60" as="geometry" />
        </mxCell>
        <mxCell id="zAf745h_EL0XXIkWd8x4-95" value="" style="endArrow=none;html=1;exitX=1;exitY=0.5;exitDx=0;exitDy=0;strokeWidth=2;" edge="1" parent="1" source="zAf745h_EL0XXIkWd8x4-87">
          <mxGeometry width="50" height="50" relative="1" as="geometry">
            <mxPoint x="1270" y="690" as="sourcePoint" />
            <mxPoint x="1300" y="670" as="targetPoint" />
          </mxGeometry>
        </mxCell>
        <mxCell id="zAf745h_EL0XXIkWd8x4-96" value="" style="endArrow=none;html=1;exitX=1;exitY=0.5;exitDx=0;exitDy=0;rounded=0;strokeWidth=2;" edge="1" parent="1" source="zAf745h_EL0XXIkWd8x4-89">
          <mxGeometry width="50" height="50" relative="1" as="geometry">
            <mxPoint x="1270" y="690" as="sourcePoint" />
            <mxPoint x="1300" y="700" as="targetPoint" />
            <Array as="points">
              <mxPoint x="1300" y="815" />
            </Array>
          </mxGeometry>
        </mxCell>
        <mxCell id="zAf745h_EL0XXIkWd8x4-97" value="" style="endArrow=none;html=1;exitX=1;exitY=0.5;exitDx=0;exitDy=0;strokeWidth=2;" edge="1" parent="1">
          <mxGeometry width="50" height="50" relative="1" as="geometry">
            <mxPoint x="1280" y="739.5" as="sourcePoint" />
            <mxPoint x="1300" y="739.5" as="targetPoint" />
          </mxGeometry>
        </mxCell>
        <mxCell id="zAf745h_EL0XXIkWd8x4-98" value="&lt;font size=&quot;3&quot;&gt;Deploy&lt;/font&gt;" style="rounded=1;whiteSpace=wrap;html=1;fillColor=#dae8fc;strokeColor=#6c8ebf;strokeWidth=4;" vertex="1" parent="1">
          <mxGeometry x="1410" y="675" width="70" height="60" as="geometry" />
        </mxCell>
        <mxCell id="zAf745h_EL0XXIkWd8x4-99" value="" style="endArrow=classic;html=1;exitX=1;exitY=0.5;exitDx=0;exitDy=0;" edge="1" parent="1">
          <mxGeometry width="50" height="50" relative="1" as="geometry">
            <mxPoint x="1390" y="704.5" as="sourcePoint" />
            <mxPoint x="1410" y="705" as="targetPoint" />
          </mxGeometry>
        </mxCell>
        <mxCell id="zAf745h_EL0XXIkWd8x4-100" value="&lt;font size=&quot;3&quot;&gt;Data&lt;/font&gt;" style="rounded=1;whiteSpace=wrap;html=1;fillColor=#bac8d3;strokeColor=#23445d;shadow=0;sketch=1;" vertex="1" parent="1">
          <mxGeometry x="910" y="985" width="70" height="60" as="geometry" />
        </mxCell>
        <mxCell id="zAf745h_EL0XXIkWd8x4-101" value="&lt;font size=&quot;3&quot;&gt;PP&lt;/font&gt;" style="rounded=1;whiteSpace=wrap;html=1;fillColor=#bac8d3;strokeColor=#23445d;shadow=0;sketch=1;" vertex="1" parent="1">
          <mxGeometry x="1000" y="985" width="70" height="60" as="geometry" />
        </mxCell>
        <mxCell id="zAf745h_EL0XXIkWd8x4-102" value="&lt;font size=&quot;3&quot;&gt;Input Rep.&lt;/font&gt;" style="rounded=1;whiteSpace=wrap;html=1;fillColor=#bac8d3;strokeColor=#23445d;shadow=0;sketch=1;" vertex="1" parent="1">
          <mxGeometry x="1090" y="985" width="70" height="60" as="geometry" />
        </mxCell>
        <mxCell id="zAf745h_EL0XXIkWd8x4-103" value="&lt;font style=&quot;font-size: 18px&quot;&gt;&lt;u&gt;Duygu (P/N) Tahminleme&lt;/u&gt;&lt;/font&gt;" style="text;html=1;align=center;verticalAlign=middle;resizable=0;points=[];autosize=1;strokeColor=none;" vertex="1" parent="1">
          <mxGeometry x="930" y="915" width="210" height="20" as="geometry" />
        </mxCell>
        <mxCell id="zAf745h_EL0XXIkWd8x4-104" value="" style="endArrow=classic;html=1;exitX=1;exitY=0.5;exitDx=0;exitDy=0;" edge="1" parent="1">
          <mxGeometry width="50" height="50" relative="1" as="geometry">
            <mxPoint x="1070" y="1014.5" as="sourcePoint" />
            <mxPoint x="1090" y="1015" as="targetPoint" />
          </mxGeometry>
        </mxCell>
        <mxCell id="zAf745h_EL0XXIkWd8x4-105" value="" style="endArrow=classic;html=1;exitX=1;exitY=0.5;exitDx=0;exitDy=0;" edge="1" parent="1">
          <mxGeometry width="50" height="50" relative="1" as="geometry">
            <mxPoint x="980" y="1014.5" as="sourcePoint" />
            <mxPoint x="1000" y="1015" as="targetPoint" />
          </mxGeometry>
        </mxCell>
        <mxCell id="zAf745h_EL0XXIkWd8x4-106" value="" style="endArrow=classic;html=1;exitX=1;exitY=0.5;exitDx=0;exitDy=0;entryX=0;entryY=0.5;entryDx=0;entryDy=0;rounded=0;" edge="1" parent="1" target="zAf745h_EL0XXIkWd8x4-107">
          <mxGeometry width="50" height="50" relative="1" as="geometry">
            <mxPoint x="1160" y="1015" as="sourcePoint" />
            <mxPoint x="1200" y="1015.5" as="targetPoint" />
            <Array as="points">
              <mxPoint x="1180" y="1015" />
            </Array>
          </mxGeometry>
        </mxCell>
        <mxCell id="zAf745h_EL0XXIkWd8x4-107" value="Decision Tree" style="ellipse;whiteSpace=wrap;html=1;fillColor=#b0e3e6;strokeColor=#0e8088;" vertex="1" parent="1">
          <mxGeometry x="1200" y="985" width="80" height="60" as="geometry" />
        </mxCell>
        <mxCell id="zAf745h_EL0XXIkWd8x4-108" value="Naive Bayes" style="ellipse;whiteSpace=wrap;html=1;fillColor=#b0e3e6;strokeColor=#0e8088;" vertex="1" parent="1">
          <mxGeometry x="1200" y="1055" width="80" height="60" as="geometry" />
        </mxCell>
        <mxCell id="zAf745h_EL0XXIkWd8x4-109" value="Logistic &amp;nbsp;Regression" style="ellipse;whiteSpace=wrap;html=1;fillColor=#b0e3e6;strokeColor=#0e8088;" vertex="1" parent="1">
          <mxGeometry x="1200" y="915" width="80" height="60" as="geometry" />
        </mxCell>
        <mxCell id="zAf745h_EL0XXIkWd8x4-110" value="" style="endArrow=classic;html=1;entryX=0;entryY=0.5;entryDx=0;entryDy=0;rounded=0;" edge="1" parent="1" target="zAf745h_EL0XXIkWd8x4-108">
          <mxGeometry width="50" height="50" relative="1" as="geometry">
            <mxPoint x="1180" y="1010" as="sourcePoint" />
            <mxPoint x="1200" y="1055" as="targetPoint" />
            <Array as="points">
              <mxPoint x="1180" y="1085" />
            </Array>
          </mxGeometry>
        </mxCell>
        <mxCell id="zAf745h_EL0XXIkWd8x4-111" value="" style="endArrow=classic;html=1;rounded=0;entryX=0;entryY=0.5;entryDx=0;entryDy=0;" edge="1" parent="1" target="zAf745h_EL0XXIkWd8x4-109">
          <mxGeometry width="50" height="50" relative="1" as="geometry">
            <mxPoint x="1180" y="1015" as="sourcePoint" />
            <mxPoint x="1130" y="1145" as="targetPoint" />
            <Array as="points">
              <mxPoint x="1180" y="945" />
            </Array>
          </mxGeometry>
        </mxCell>
        <mxCell id="zAf745h_EL0XXIkWd8x4-112" value="" style="endArrow=classic;html=1;exitX=1;exitY=0.5;exitDx=0;exitDy=0;entryX=0;entryY=0.5;entryDx=0;entryDy=0;rounded=0;" edge="1" parent="1" source="zAf745h_EL0XXIkWd8x4-109" target="zAf745h_EL0XXIkWd8x4-113">
          <mxGeometry width="50" height="50" relative="1" as="geometry">
            <mxPoint x="1280" y="909.5" as="sourcePoint" />
            <mxPoint x="1370" y="910" as="targetPoint" />
            <Array as="points">
              <mxPoint x="1300" y="945" />
              <mxPoint x="1300" y="1015" />
            </Array>
          </mxGeometry>
        </mxCell>
        <mxCell id="zAf745h_EL0XXIkWd8x4-113" value="&lt;font size=&quot;3&quot;&gt;Eval&lt;/font&gt;" style="rounded=1;whiteSpace=wrap;html=1;fillColor=#dae8fc;strokeColor=#6c8ebf;" vertex="1" parent="1">
          <mxGeometry x="1320" y="985" width="70" height="60" as="geometry" />
        </mxCell>
        <mxCell id="zAf745h_EL0XXIkWd8x4-114" value="" style="endArrow=none;html=1;exitX=1;exitY=0.5;exitDx=0;exitDy=0;" edge="1" parent="1" source="zAf745h_EL0XXIkWd8x4-107">
          <mxGeometry width="50" height="50" relative="1" as="geometry">
            <mxPoint x="1270" y="1000" as="sourcePoint" />
            <mxPoint x="1300" y="1015" as="targetPoint" />
          </mxGeometry>
        </mxCell>
        <mxCell id="zAf745h_EL0XXIkWd8x4-115" value="" style="endArrow=none;html=1;exitX=1;exitY=0.5;exitDx=0;exitDy=0;rounded=0;" edge="1" parent="1" source="zAf745h_EL0XXIkWd8x4-108">
          <mxGeometry width="50" height="50" relative="1" as="geometry">
            <mxPoint x="1280" y="1049.5" as="sourcePoint" />
            <mxPoint x="1300" y="1010" as="targetPoint" />
            <Array as="points">
              <mxPoint x="1300" y="1085" />
            </Array>
          </mxGeometry>
        </mxCell>
        <mxCell id="zAf745h_EL0XXIkWd8x4-116" value="&lt;font size=&quot;3&quot;&gt;Deploy&lt;/font&gt;" style="rounded=1;whiteSpace=wrap;html=1;fillColor=#dae8fc;strokeColor=#6c8ebf;" vertex="1" parent="1">
          <mxGeometry x="1410" y="985" width="70" height="60" as="geometry" />
        </mxCell>
        <mxCell id="zAf745h_EL0XXIkWd8x4-117" value="" style="endArrow=classic;html=1;exitX=1;exitY=0.5;exitDx=0;exitDy=0;" edge="1" parent="1">
          <mxGeometry width="50" height="50" relative="1" as="geometry">
            <mxPoint x="1390" y="1014.5" as="sourcePoint" />
            <mxPoint x="1410" y="1015" as="targetPoint" />
          </mxGeometry>
        </mxCell>
        <mxCell id="zAf745h_EL0XXIkWd8x4-118" value="Logistic &amp;nbsp;Regression" style="ellipse;whiteSpace=wrap;html=1;fillColor=#b0e3e6;strokeColor=#0e8088;shadow=1;strokeWidth=4;perimeterSpacing=0;" vertex="1" parent="1">
          <mxGeometry x="1201" y="570" width="80" height="60" as="geometry" />
        </mxCell>
        <mxCell id="zAf745h_EL0XXIkWd8x4-119" value="" style="endArrow=classic;html=1;exitX=1;exitY=0.5;exitDx=0;exitDy=0;rounded=0;strokeWidth=2;" edge="1" parent="1">
          <mxGeometry width="50" height="50" relative="1" as="geometry">
            <mxPoint x="1480" y="710" as="sourcePoint" />
            <mxPoint x="1530" y="850" as="targetPoint" />
            <Array as="points">
              <mxPoint x="1500" y="710.5" />
              <mxPoint x="1500" y="770.5" />
              <mxPoint x="1500" y="850" />
            </Array>
          </mxGeometry>
        </mxCell>
        <mxCell id="zAf745h_EL0XXIkWd8x4-122" value="&lt;font style=&quot;font-size: 18px&quot;&gt;Uygulama (Back-End)&lt;/font&gt;" style="whiteSpace=wrap;html=1;aspect=fixed;fillColor=#f5f5f5;strokeColor=#666666;fontColor=#333333;glass=0;rounded=0;shadow=1;" vertex="1" parent="1">
          <mxGeometry x="1530" y="795" width="100" height="100" as="geometry" />
        </mxCell>
        <mxCell id="zAf745h_EL0XXIkWd8x4-123" value="" style="endArrow=classic;html=1;exitX=1;exitY=0.5;exitDx=0;exitDy=0;rounded=0;" edge="1" parent="1" source="zAf745h_EL0XXIkWd8x4-116">
          <mxGeometry width="50" height="50" relative="1" as="geometry">
            <mxPoint x="1490" y="720" as="sourcePoint" />
            <mxPoint x="1520" y="850" as="targetPoint" />
            <Array as="points">
              <mxPoint x="1500" y="1015" />
              <mxPoint x="1500" y="850" />
              <mxPoint x="1510" y="850" />
            </Array>
          </mxGeometry>
        </mxCell>
        <mxCell id="zAf745h_EL0XXIkWd8x4-124" value="&lt;span id=&quot;docs-internal-guid-0cf493ed-7fff-a0dc-f9e0-30285afa0449&quot;&gt;&lt;p dir=&quot;ltr&quot; style=&quot;line-height: 1.2 ; margin-top: 0pt ; margin-bottom: 0pt&quot;&gt;&lt;span style=&quot;font-size: 11pt ; font-family: &amp;#34;arial&amp;#34; ; background-color: transparent ; vertical-align: baseline&quot;&gt;Staj sunumu gibi bir process diagramı çiz ve üzerinden süreçleri ilerleyen slaytlarda belirt&lt;/span&gt;&lt;/p&gt;&lt;p dir=&quot;ltr&quot; style=&quot;line-height: 1.2 ; margin-top: 0pt ; margin-bottom: 0pt&quot;&gt;&lt;span style=&quot;font-size: 11pt ; font-family: &amp;#34;arial&amp;#34; ; background-color: transparent ; vertical-align: baseline&quot;&gt;Input representationda vektör uzayı görselini de alıp anlat -&amp;gt; Metin nasıl sayısallaştırılıyor ve nasıl anlamı analiz ediliyor??&lt;/span&gt;&lt;/p&gt;&lt;br&gt;&lt;p dir=&quot;ltr&quot; style=&quot;line-height: 1.2 ; margin-top: 0pt ; margin-bottom: 0pt&quot;&gt;&lt;span style=&quot;font-size: 11pt ; font-family: &amp;#34;arial&amp;#34; ; background-color: transparent ; vertical-align: baseline&quot;&gt;Sistemdeki en önemli süreç modellemedir. Burada süreç diyagramında modelleme aşamalarını sizlere gösteriyoruz.&amp;nbsp;&lt;/span&gt;&lt;/p&gt;&lt;br&gt;&lt;br&gt;&lt;/span&gt;" style="text;html=1;align=center;verticalAlign=middle;resizable=0;points=[];autosize=1;strokeColor=none;" vertex="1" parent="1">
          <mxGeometry x="570" y="165" width="780" height="90" as="geometry" />
        </mxCell>
        <mxCell id="zAf745h_EL0XXIkWd8x4-125" value="" style="html=1;aspect=fixed;strokeColor=none;shadow=0;align=center;verticalAlign=top;fillColor=#2D9C5E;shape=mxgraph.gcp2.check;rounded=0;glass=0;sketch=0;" vertex="1" parent="1">
          <mxGeometry x="930" y="715" width="37.5" height="30" as="geometry" />
        </mxCell>
        <mxCell id="zAf745h_EL0XXIkWd8x4-127" value="" style="html=1;aspect=fixed;strokeColor=none;shadow=0;align=center;verticalAlign=top;fillColor=#2D9C5E;shape=mxgraph.gcp2.check;rounded=0;glass=0;sketch=0;" vertex="1" parent="1">
          <mxGeometry x="1110" y="1025" width="37.5" height="30" as="geometry" />
        </mxCell>
        <mxCell id="zAf745h_EL0XXIkWd8x4-128" value="" style="html=1;aspect=fixed;strokeColor=none;shadow=0;align=center;verticalAlign=top;fillColor=#2D9C5E;shape=mxgraph.gcp2.check;rounded=0;glass=0;sketch=0;" vertex="1" parent="1">
          <mxGeometry x="1020" y="1025" width="37.5" height="30" as="geometry" />
        </mxCell>
        <mxCell id="zAf745h_EL0XXIkWd8x4-129" value="" style="html=1;aspect=fixed;strokeColor=none;shadow=0;align=center;verticalAlign=top;fillColor=#2D9C5E;shape=mxgraph.gcp2.check;rounded=0;glass=0;sketch=0;" vertex="1" parent="1">
          <mxGeometry x="930" y="1025" width="37.5" height="30" as="geometry" />
        </mxCell>
        <mxCell id="zAf745h_EL0XXIkWd8x4-130" value="" style="html=1;aspect=fixed;strokeColor=none;shadow=0;align=center;verticalAlign=top;fillColor=#2D9C5E;shape=mxgraph.gcp2.check;rounded=0;glass=0;sketch=0;" vertex="1" parent="1">
          <mxGeometry x="1016.25" y="715" width="37.5" height="30" as="geometry" />
        </mxCell>
        <mxCell id="zAf745h_EL0XXIkWd8x4-131" value="" style="html=1;aspect=fixed;strokeColor=none;shadow=0;align=center;verticalAlign=top;fillColor=#2D9C5E;shape=mxgraph.gcp2.check;rounded=0;glass=0;sketch=0;" vertex="1" parent="1">
          <mxGeometry x="1110" y="715" width="37.5" height="30" as="geometry" />
        </mxCell>
        <mxCell id="zAf745h_EL0XXIkWd8x4-133" value="&lt;font size=&quot;3&quot;&gt;Data&lt;/font&gt;" style="rounded=1;whiteSpace=wrap;html=1;fillColor=#bac8d3;sketch=1;strokeColor=#23445d;" vertex="1" parent="1">
          <mxGeometry x="1690" y="160" width="70" height="60" as="geometry" />
        </mxCell>
        <mxCell id="zAf745h_EL0XXIkWd8x4-134" value="&lt;font size=&quot;3&quot;&gt;PP&lt;/font&gt;" style="rounded=1;whiteSpace=wrap;html=1;fillColor=#bac8d3;strokeColor=#23445d;sketch=1;" vertex="1" parent="1">
          <mxGeometry x="1780" y="160" width="70" height="60" as="geometry" />
        </mxCell>
        <mxCell id="zAf745h_EL0XXIkWd8x4-135" value="&lt;font size=&quot;3&quot;&gt;Input Rep.&lt;/font&gt;" style="rounded=1;whiteSpace=wrap;html=1;fillColor=#bac8d3;strokeColor=#23445d;shadow=0;sketch=1;" vertex="1" parent="1">
          <mxGeometry x="1870" y="160" width="70" height="60" as="geometry" />
        </mxCell>
        <mxCell id="zAf745h_EL0XXIkWd8x4-136" value="&lt;font style=&quot;font-size: 18px&quot;&gt;&lt;u&gt;Rating (1-10) Tahminleme&lt;/u&gt;&lt;/font&gt;" style="text;html=1;align=center;verticalAlign=middle;resizable=0;points=[];autosize=1;strokeColor=none;" vertex="1" parent="1">
          <mxGeometry x="1705" y="50" width="220" height="20" as="geometry" />
        </mxCell>
        <mxCell id="zAf745h_EL0XXIkWd8x4-137" value="" style="endArrow=classic;html=1;exitX=1;exitY=0.5;exitDx=0;exitDy=0;" edge="1" parent="1">
          <mxGeometry width="50" height="50" relative="1" as="geometry">
            <mxPoint x="1850" y="189.5" as="sourcePoint" />
            <mxPoint x="1870" y="190" as="targetPoint" />
          </mxGeometry>
        </mxCell>
        <mxCell id="zAf745h_EL0XXIkWd8x4-138" value="" style="endArrow=classic;html=1;exitX=1;exitY=0.5;exitDx=0;exitDy=0;" edge="1" parent="1">
          <mxGeometry width="50" height="50" relative="1" as="geometry">
            <mxPoint x="1760" y="189.5" as="sourcePoint" />
            <mxPoint x="1780" y="190" as="targetPoint" />
          </mxGeometry>
        </mxCell>
        <mxCell id="zAf745h_EL0XXIkWd8x4-139" value="" style="endArrow=classic;html=1;exitX=1;exitY=0.5;exitDx=0;exitDy=0;entryX=0;entryY=0.5;entryDx=0;entryDy=0;rounded=0;" edge="1" parent="1" target="zAf745h_EL0XXIkWd8x4-140">
          <mxGeometry width="50" height="50" relative="1" as="geometry">
            <mxPoint x="1940" y="190" as="sourcePoint" />
            <mxPoint x="1980" y="190.5" as="targetPoint" />
            <Array as="points">
              <mxPoint x="1960" y="190" />
              <mxPoint x="1960" y="155" />
            </Array>
          </mxGeometry>
        </mxCell>
        <mxCell id="zAf745h_EL0XXIkWd8x4-140" value="Decision Tree" style="ellipse;whiteSpace=wrap;html=1;fillColor=#bac8d3;strokeColor=#23445d;shadow=1;strokeWidth=1;perimeterSpacing=0;" vertex="1" parent="1">
          <mxGeometry x="1980" y="125" width="80" height="60" as="geometry" />
        </mxCell>
        <mxCell id="zAf745h_EL0XXIkWd8x4-141" value="Naive Bayes" style="ellipse;whiteSpace=wrap;html=1;fillColor=#bac8d3;strokeColor=#23445d;shadow=1;strokeWidth=1;perimeterSpacing=0;" vertex="1" parent="1">
          <mxGeometry x="1980" y="195" width="80" height="60" as="geometry" />
        </mxCell>
        <mxCell id="zAf745h_EL0XXIkWd8x4-142" value="LSTM" style="ellipse;whiteSpace=wrap;html=1;fillColor=#bac8d3;strokeColor=#23445d;shadow=1;strokeWidth=1;perimeterSpacing=0;" vertex="1" parent="1">
          <mxGeometry x="1980" y="270" width="80" height="60" as="geometry" />
        </mxCell>
        <mxCell id="zAf745h_EL0XXIkWd8x4-143" value="" style="endArrow=classic;html=1;entryX=0;entryY=0.5;entryDx=0;entryDy=0;" edge="1" parent="1" target="zAf745h_EL0XXIkWd8x4-141">
          <mxGeometry width="50" height="50" relative="1" as="geometry">
            <mxPoint x="1960" y="225" as="sourcePoint" />
            <mxPoint x="1980" y="230" as="targetPoint" />
          </mxGeometry>
        </mxCell>
        <mxCell id="zAf745h_EL0XXIkWd8x4-144" value="" style="endArrow=classic;html=1;entryX=0;entryY=0.5;entryDx=0;entryDy=0;rounded=0;" edge="1" parent="1" target="zAf745h_EL0XXIkWd8x4-142">
          <mxGeometry width="50" height="50" relative="1" as="geometry">
            <mxPoint x="1960" y="190" as="sourcePoint" />
            <mxPoint x="1990" y="240" as="targetPoint" />
            <Array as="points">
              <mxPoint x="1960" y="300" />
            </Array>
          </mxGeometry>
        </mxCell>
        <mxCell id="zAf745h_EL0XXIkWd8x4-145" value="" style="endArrow=classic;html=1;rounded=0;entryX=0;entryY=0.5;entryDx=0;entryDy=0;" edge="1" parent="1">
          <mxGeometry width="50" height="50" relative="1" as="geometry">
            <mxPoint x="1960" y="190" as="sourcePoint" />
            <mxPoint x="1980" y="85" as="targetPoint" />
            <Array as="points">
              <mxPoint x="1960" y="85" />
            </Array>
          </mxGeometry>
        </mxCell>
        <mxCell id="zAf745h_EL0XXIkWd8x4-146" value="" style="endArrow=classic;html=1;exitX=1;exitY=0.5;exitDx=0;exitDy=0;entryX=0;entryY=0.5;entryDx=0;entryDy=0;rounded=0;strokeWidth=3;fillColor=#60a917;strokeColor=#2D7600;" edge="1" parent="1" target="zAf745h_EL0XXIkWd8x4-147">
          <mxGeometry width="50" height="50" relative="1" as="geometry">
            <mxPoint x="2060" y="84.5" as="sourcePoint" />
            <mxPoint x="2150" y="85" as="targetPoint" />
            <Array as="points">
              <mxPoint x="2080" y="85" />
              <mxPoint x="2080" y="145" />
              <mxPoint x="2080" y="190" />
            </Array>
          </mxGeometry>
        </mxCell>
        <mxCell id="zAf745h_EL0XXIkWd8x4-147" value="&lt;font size=&quot;3&quot;&gt;Eval&lt;/font&gt;" style="rounded=1;whiteSpace=wrap;html=1;fillColor=#dae8fc;strokeColor=#6c8ebf;strokeWidth=1;" vertex="1" parent="1">
          <mxGeometry x="2100" y="160" width="70" height="60" as="geometry" />
        </mxCell>
        <mxCell id="zAf745h_EL0XXIkWd8x4-148" value="" style="endArrow=none;html=1;exitX=1;exitY=0.5;exitDx=0;exitDy=0;strokeWidth=2;" edge="1" parent="1" source="zAf745h_EL0XXIkWd8x4-140">
          <mxGeometry width="50" height="50" relative="1" as="geometry">
            <mxPoint x="2050" y="175" as="sourcePoint" />
            <mxPoint x="2080" y="155" as="targetPoint" />
          </mxGeometry>
        </mxCell>
        <mxCell id="zAf745h_EL0XXIkWd8x4-149" value="" style="endArrow=none;html=1;exitX=1;exitY=0.5;exitDx=0;exitDy=0;rounded=0;strokeWidth=1;" edge="1" parent="1" source="zAf745h_EL0XXIkWd8x4-142">
          <mxGeometry width="50" height="50" relative="1" as="geometry">
            <mxPoint x="2050" y="175" as="sourcePoint" />
            <mxPoint x="2080" y="185" as="targetPoint" />
            <Array as="points">
              <mxPoint x="2080" y="300" />
            </Array>
          </mxGeometry>
        </mxCell>
        <mxCell id="zAf745h_EL0XXIkWd8x4-150" value="" style="endArrow=none;html=1;exitX=1;exitY=0.5;exitDx=0;exitDy=0;strokeWidth=2;" edge="1" parent="1">
          <mxGeometry width="50" height="50" relative="1" as="geometry">
            <mxPoint x="2060" y="224.5" as="sourcePoint" />
            <mxPoint x="2080" y="224.5" as="targetPoint" />
          </mxGeometry>
        </mxCell>
        <mxCell id="zAf745h_EL0XXIkWd8x4-151" value="&lt;font size=&quot;3&quot;&gt;Deploy&lt;/font&gt;" style="rounded=1;whiteSpace=wrap;html=1;fillColor=#dae8fc;strokeColor=#6c8ebf;strokeWidth=1;" vertex="1" parent="1">
          <mxGeometry x="2190" y="160" width="70" height="60" as="geometry" />
        </mxCell>
        <mxCell id="zAf745h_EL0XXIkWd8x4-152" value="" style="endArrow=classic;html=1;exitX=1;exitY=0.5;exitDx=0;exitDy=0;fillColor=#60a917;strokeColor=#2D7600;strokeWidth=2;" edge="1" parent="1">
          <mxGeometry width="50" height="50" relative="1" as="geometry">
            <mxPoint x="2170" y="189.5" as="sourcePoint" />
            <mxPoint x="2190" y="190" as="targetPoint" />
          </mxGeometry>
        </mxCell>
        <mxCell id="zAf745h_EL0XXIkWd8x4-153" value="&lt;font size=&quot;3&quot;&gt;Data&lt;/font&gt;" style="rounded=1;whiteSpace=wrap;html=1;fillColor=#bac8d3;strokeColor=#23445d;shadow=0;sketch=1;" vertex="1" parent="1">
          <mxGeometry x="1690" y="470" width="70" height="60" as="geometry" />
        </mxCell>
        <mxCell id="zAf745h_EL0XXIkWd8x4-154" value="&lt;font size=&quot;3&quot;&gt;PP&lt;/font&gt;" style="rounded=1;whiteSpace=wrap;html=1;fillColor=#bac8d3;strokeColor=#23445d;shadow=0;sketch=1;" vertex="1" parent="1">
          <mxGeometry x="1780" y="470" width="70" height="60" as="geometry" />
        </mxCell>
        <mxCell id="zAf745h_EL0XXIkWd8x4-155" value="&lt;font size=&quot;3&quot;&gt;Input Rep.&lt;/font&gt;" style="rounded=1;whiteSpace=wrap;html=1;fillColor=#bac8d3;strokeColor=#23445d;shadow=0;sketch=1;" vertex="1" parent="1">
          <mxGeometry x="1870" y="470" width="70" height="60" as="geometry" />
        </mxCell>
        <mxCell id="zAf745h_EL0XXIkWd8x4-156" value="&lt;font style=&quot;font-size: 18px&quot;&gt;&lt;u&gt;Duygu (P/N) Tahminleme&lt;/u&gt;&lt;/font&gt;" style="text;html=1;align=center;verticalAlign=middle;resizable=0;points=[];autosize=1;strokeColor=none;" vertex="1" parent="1">
          <mxGeometry x="1710" y="400" width="210" height="20" as="geometry" />
        </mxCell>
        <mxCell id="zAf745h_EL0XXIkWd8x4-157" value="" style="endArrow=classic;html=1;exitX=1;exitY=0.5;exitDx=0;exitDy=0;" edge="1" parent="1">
          <mxGeometry width="50" height="50" relative="1" as="geometry">
            <mxPoint x="1850" y="499.5" as="sourcePoint" />
            <mxPoint x="1870" y="500" as="targetPoint" />
          </mxGeometry>
        </mxCell>
        <mxCell id="zAf745h_EL0XXIkWd8x4-158" value="" style="endArrow=classic;html=1;exitX=1;exitY=0.5;exitDx=0;exitDy=0;" edge="1" parent="1">
          <mxGeometry width="50" height="50" relative="1" as="geometry">
            <mxPoint x="1760" y="499.5" as="sourcePoint" />
            <mxPoint x="1780" y="500" as="targetPoint" />
          </mxGeometry>
        </mxCell>
        <mxCell id="zAf745h_EL0XXIkWd8x4-159" value="" style="endArrow=classic;html=1;exitX=1;exitY=0.5;exitDx=0;exitDy=0;entryX=0;entryY=0.5;entryDx=0;entryDy=0;rounded=0;" edge="1" parent="1" target="zAf745h_EL0XXIkWd8x4-160">
          <mxGeometry width="50" height="50" relative="1" as="geometry">
            <mxPoint x="1940" y="500" as="sourcePoint" />
            <mxPoint x="1980" y="500.5" as="targetPoint" />
            <Array as="points">
              <mxPoint x="1960" y="500" />
            </Array>
          </mxGeometry>
        </mxCell>
        <mxCell id="zAf745h_EL0XXIkWd8x4-160" value="Decision Tree" style="ellipse;whiteSpace=wrap;html=1;fillColor=#b0e3e6;strokeColor=#0e8088;strokeWidth=5;" vertex="1" parent="1">
          <mxGeometry x="1980" y="470" width="80" height="60" as="geometry" />
        </mxCell>
        <mxCell id="zAf745h_EL0XXIkWd8x4-161" value="Naive Bayes" style="ellipse;whiteSpace=wrap;html=1;fillColor=#b0e3e6;strokeColor=#0e8088;strokeWidth=5;" vertex="1" parent="1">
          <mxGeometry x="1980" y="540" width="80" height="60" as="geometry" />
        </mxCell>
        <mxCell id="zAf745h_EL0XXIkWd8x4-162" value="Logistic &amp;nbsp;Regression" style="ellipse;whiteSpace=wrap;html=1;fillColor=#b0e3e6;strokeColor=#0e8088;strokeWidth=5;" vertex="1" parent="1">
          <mxGeometry x="1980" y="400" width="80" height="60" as="geometry" />
        </mxCell>
        <mxCell id="zAf745h_EL0XXIkWd8x4-163" value="" style="endArrow=classic;html=1;entryX=0;entryY=0.5;entryDx=0;entryDy=0;rounded=0;" edge="1" parent="1" target="zAf745h_EL0XXIkWd8x4-161">
          <mxGeometry width="50" height="50" relative="1" as="geometry">
            <mxPoint x="1960" y="495" as="sourcePoint" />
            <mxPoint x="1980" y="540" as="targetPoint" />
            <Array as="points">
              <mxPoint x="1960" y="570" />
            </Array>
          </mxGeometry>
        </mxCell>
        <mxCell id="zAf745h_EL0XXIkWd8x4-164" value="" style="endArrow=classic;html=1;rounded=0;entryX=0;entryY=0.5;entryDx=0;entryDy=0;" edge="1" parent="1" target="zAf745h_EL0XXIkWd8x4-162">
          <mxGeometry width="50" height="50" relative="1" as="geometry">
            <mxPoint x="1960" y="500" as="sourcePoint" />
            <mxPoint x="1910" y="630" as="targetPoint" />
            <Array as="points">
              <mxPoint x="1960" y="430" />
            </Array>
          </mxGeometry>
        </mxCell>
        <mxCell id="zAf745h_EL0XXIkWd8x4-165" value="" style="endArrow=classic;html=1;exitX=1;exitY=0.5;exitDx=0;exitDy=0;entryX=0;entryY=0.5;entryDx=0;entryDy=0;rounded=0;" edge="1" parent="1" source="zAf745h_EL0XXIkWd8x4-162" target="zAf745h_EL0XXIkWd8x4-166">
          <mxGeometry width="50" height="50" relative="1" as="geometry">
            <mxPoint x="2060" y="394.5" as="sourcePoint" />
            <mxPoint x="2150" y="395" as="targetPoint" />
            <Array as="points">
              <mxPoint x="2080" y="430" />
              <mxPoint x="2080" y="500" />
            </Array>
          </mxGeometry>
        </mxCell>
        <mxCell id="zAf745h_EL0XXIkWd8x4-166" value="&lt;font size=&quot;3&quot;&gt;Eval&lt;/font&gt;" style="rounded=1;whiteSpace=wrap;html=1;fillColor=#dae8fc;strokeColor=#6c8ebf;strokeWidth=5;" vertex="1" parent="1">
          <mxGeometry x="2100" y="470" width="70" height="60" as="geometry" />
        </mxCell>
        <mxCell id="zAf745h_EL0XXIkWd8x4-167" value="" style="endArrow=none;html=1;exitX=1;exitY=0.5;exitDx=0;exitDy=0;" edge="1" parent="1" source="zAf745h_EL0XXIkWd8x4-160">
          <mxGeometry width="50" height="50" relative="1" as="geometry">
            <mxPoint x="2050" y="485" as="sourcePoint" />
            <mxPoint x="2080" y="500" as="targetPoint" />
          </mxGeometry>
        </mxCell>
        <mxCell id="zAf745h_EL0XXIkWd8x4-168" value="" style="endArrow=none;html=1;exitX=1;exitY=0.5;exitDx=0;exitDy=0;rounded=0;" edge="1" parent="1" source="zAf745h_EL0XXIkWd8x4-161">
          <mxGeometry width="50" height="50" relative="1" as="geometry">
            <mxPoint x="2060" y="534.5" as="sourcePoint" />
            <mxPoint x="2080" y="495" as="targetPoint" />
            <Array as="points">
              <mxPoint x="2080" y="570" />
            </Array>
          </mxGeometry>
        </mxCell>
        <mxCell id="zAf745h_EL0XXIkWd8x4-169" value="&lt;font size=&quot;3&quot;&gt;Deploy&lt;/font&gt;" style="rounded=1;whiteSpace=wrap;html=1;fillColor=#dae8fc;strokeColor=#6c8ebf;strokeWidth=5;" vertex="1" parent="1">
          <mxGeometry x="2190" y="470" width="70" height="60" as="geometry" />
        </mxCell>
        <mxCell id="zAf745h_EL0XXIkWd8x4-170" value="" style="endArrow=classic;html=1;exitX=1;exitY=0.5;exitDx=0;exitDy=0;" edge="1" parent="1">
          <mxGeometry width="50" height="50" relative="1" as="geometry">
            <mxPoint x="2170" y="499.5" as="sourcePoint" />
            <mxPoint x="2190" y="500" as="targetPoint" />
          </mxGeometry>
        </mxCell>
        <mxCell id="zAf745h_EL0XXIkWd8x4-171" value="Logistic &amp;nbsp;Regression" style="ellipse;whiteSpace=wrap;html=1;fillColor=#b0e3e6;strokeColor=#0e8088;shadow=1;strokeWidth=1;perimeterSpacing=0;sketch=0;" vertex="1" parent="1">
          <mxGeometry x="1981" y="55" width="80" height="60" as="geometry" />
        </mxCell>
        <mxCell id="zAf745h_EL0XXIkWd8x4-172" value="" style="endArrow=classic;html=1;exitX=1;exitY=0.5;exitDx=0;exitDy=0;rounded=0;strokeWidth=3;fillColor=#60a917;strokeColor=#2D7600;" edge="1" parent="1">
          <mxGeometry width="50" height="50" relative="1" as="geometry">
            <mxPoint x="2260" y="195" as="sourcePoint" />
            <mxPoint x="2310" y="335" as="targetPoint" />
            <Array as="points">
              <mxPoint x="2280" y="195.5" />
              <mxPoint x="2280" y="255.5" />
              <mxPoint x="2280" y="335" />
            </Array>
          </mxGeometry>
        </mxCell>
        <mxCell id="zAf745h_EL0XXIkWd8x4-173" value="&lt;font style=&quot;font-size: 18px&quot;&gt;Uygulama (Back-End)&lt;/font&gt;" style="whiteSpace=wrap;html=1;aspect=fixed;fillColor=#f5f5f5;strokeColor=#666666;fontColor=#333333;glass=0;rounded=0;shadow=1;" vertex="1" parent="1">
          <mxGeometry x="2310" y="280" width="100" height="100" as="geometry" />
        </mxCell>
        <mxCell id="zAf745h_EL0XXIkWd8x4-174" value="" style="endArrow=classic;html=1;exitX=1;exitY=0.5;exitDx=0;exitDy=0;rounded=0;" edge="1" parent="1" source="zAf745h_EL0XXIkWd8x4-169">
          <mxGeometry width="50" height="50" relative="1" as="geometry">
            <mxPoint x="2270" y="205" as="sourcePoint" />
            <mxPoint x="2300" y="335" as="targetPoint" />
            <Array as="points">
              <mxPoint x="2280" y="500" />
              <mxPoint x="2280" y="335" />
              <mxPoint x="2290" y="335" />
            </Array>
          </mxGeometry>
        </mxCell>
        <mxCell id="zAf745h_EL0XXIkWd8x4-175" value="" style="html=1;aspect=fixed;strokeColor=none;shadow=0;align=center;verticalAlign=top;fillColor=#2D9C5E;shape=mxgraph.gcp2.check;rounded=0;glass=0;sketch=0;" vertex="1" parent="1">
          <mxGeometry x="1710" y="200" width="37.5" height="30" as="geometry" />
        </mxCell>
        <mxCell id="zAf745h_EL0XXIkWd8x4-176" value="" style="html=1;aspect=fixed;strokeColor=none;shadow=0;align=center;verticalAlign=top;fillColor=#2D9C5E;shape=mxgraph.gcp2.check;rounded=0;glass=0;sketch=0;" vertex="1" parent="1">
          <mxGeometry x="1890" y="510" width="37.5" height="30" as="geometry" />
        </mxCell>
        <mxCell id="zAf745h_EL0XXIkWd8x4-177" value="" style="html=1;aspect=fixed;strokeColor=none;shadow=0;align=center;verticalAlign=top;fillColor=#2D9C5E;shape=mxgraph.gcp2.check;rounded=0;glass=0;sketch=0;" vertex="1" parent="1">
          <mxGeometry x="1800" y="510" width="37.5" height="30" as="geometry" />
        </mxCell>
        <mxCell id="zAf745h_EL0XXIkWd8x4-178" value="" style="html=1;aspect=fixed;strokeColor=none;shadow=0;align=center;verticalAlign=top;fillColor=#2D9C5E;shape=mxgraph.gcp2.check;rounded=0;glass=0;sketch=0;" vertex="1" parent="1">
          <mxGeometry x="1710" y="510" width="37.5" height="30" as="geometry" />
        </mxCell>
        <mxCell id="zAf745h_EL0XXIkWd8x4-179" value="" style="html=1;aspect=fixed;strokeColor=none;shadow=0;align=center;verticalAlign=top;fillColor=#2D9C5E;shape=mxgraph.gcp2.check;rounded=0;glass=0;sketch=0;" vertex="1" parent="1">
          <mxGeometry x="1796.25" y="200" width="37.5" height="30" as="geometry" />
        </mxCell>
        <mxCell id="zAf745h_EL0XXIkWd8x4-180" value="" style="html=1;aspect=fixed;strokeColor=none;shadow=0;align=center;verticalAlign=top;fillColor=#2D9C5E;shape=mxgraph.gcp2.check;rounded=0;glass=0;sketch=0;" vertex="1" parent="1">
          <mxGeometry x="1890" y="200" width="37.5" height="30" as="geometry" />
        </mxCell>
        <mxCell id="zAf745h_EL0XXIkWd8x4-181" value="" style="shape=image;html=1;verticalAlign=top;verticalLabelPosition=bottom;labelBackgroundColor=#ffffff;imageAspect=0;aspect=fixed;image=https://cdn3.iconfinder.com/data/icons/musthave/128/Cancel.png;rounded=0;shadow=1;glass=0;sketch=0;strokeWidth=1;gradientColor=#ffffff;" vertex="1" parent="1">
          <mxGeometry x="2007" y="311" width="28" height="28" as="geometry" />
        </mxCell>
        <mxCell id="zAf745h_EL0XXIkWd8x4-185" value="" style="shape=image;html=1;verticalAlign=top;verticalLabelPosition=bottom;labelBackgroundColor=#ffffff;imageAspect=0;aspect=fixed;image=https://cdn3.iconfinder.com/data/icons/musthave/128/Cancel.png;rounded=0;shadow=1;glass=0;sketch=0;strokeWidth=1;gradientColor=#ffffff;" vertex="1" parent="1">
          <mxGeometry x="2007" y="236" width="28" height="28" as="geometry" />
        </mxCell>
        <mxCell id="zAf745h_EL0XXIkWd8x4-186" value="" style="shape=image;html=1;verticalAlign=top;verticalLabelPosition=bottom;labelBackgroundColor=#ffffff;imageAspect=0;aspect=fixed;image=https://cdn3.iconfinder.com/data/icons/musthave/128/Cancel.png;rounded=0;shadow=1;glass=0;sketch=0;strokeWidth=1;gradientColor=#ffffff;" vertex="1" parent="1">
          <mxGeometry x="2007" y="165" width="28" height="28" as="geometry" />
        </mxCell>
        <mxCell id="zAf745h_EL0XXIkWd8x4-187" value="" style="html=1;aspect=fixed;strokeColor=none;shadow=0;align=center;verticalAlign=top;fillColor=#2D9C5E;shape=mxgraph.gcp2.check;rounded=0;glass=0;sketch=0;" vertex="1" parent="1">
          <mxGeometry x="2007" y="95" width="37.5" height="30" as="geometry" />
        </mxCell>
        <mxCell id="zAf745h_EL0XXIkWd8x4-188" value="" style="html=1;aspect=fixed;strokeColor=none;shadow=0;align=center;verticalAlign=top;fillColor=#2D9C5E;shape=mxgraph.gcp2.check;rounded=0;glass=0;sketch=0;" vertex="1" parent="1">
          <mxGeometry x="2116.25" y="200" width="37.5" height="30" as="geometry" />
        </mxCell>
        <mxCell id="zAf745h_EL0XXIkWd8x4-189" value="" style="html=1;aspect=fixed;strokeColor=none;shadow=0;align=center;verticalAlign=top;fillColor=#2D9C5E;shape=mxgraph.gcp2.check;rounded=0;glass=0;sketch=0;" vertex="1" parent="1">
          <mxGeometry x="2206.25" y="200" width="37.5" height="30" as="geometry" />
        </mxCell>
        <mxCell id="zAf745h_EL0XXIkWd8x4-191" value="&lt;b&gt;&lt;font style=&quot;font-size: 18px&quot;&gt;65%&lt;/font&gt;&lt;/b&gt;" style="text;html=1;align=center;verticalAlign=middle;resizable=0;points=[];autosize=1;strokeColor=none;" vertex="1" parent="1">
          <mxGeometry x="2066.25" y="60" width="50" height="20" as="geometry" />
        </mxCell>
      </root>
    </mxGraphModel>
  </diagram>
</mxfile>
